<svg width="32" height="32" viewBox="0 0 32 32" fill="none" xmlns="http://www.w3.org/2000/svg">
<rect width="100%" height="100%" fill="#EC6C8E"/>
<path d="M21.3189 25.916C21.2179 25.9164 21.117 25.911 21.0166 25.8997L20.8859 25.8588L20.6449 25.7485C19.0437 25.1358 19.2602 24.1555 19.5421 22.9056V22.8975C19.5936 22.6605 19.6385 22.4221 19.6769 22.1827C19.7994 20.7367 19.056 19.8585 18.3412 19.013C18.0139 18.6453 17.7149 18.2534 17.4467 17.8407C17.1585 17.3844 16.9705 16.872 16.8952 16.3376C16.8507 16.0549 16.8618 15.7663 16.9279 15.488C16.996 15.216 17.1275 14.964 17.3119 14.7527C17.7122 14.2912 18.3289 14.0379 18.958 13.895C19.5502 13.7683 20.1548 13.7397 20.5918 13.7397C21.1544 13.7398 21.7161 13.7877 22.2706 13.8827H22.2869C23.3449 14.14 24.1209 14.8467 24.607 15.9985C25.0645 17.0687 25.2687 18.5392 25.2074 20.4018C25.1666 21.4597 24.7009 23.0813 23.8922 24.274C23.2468 25.2216 22.3809 25.916 21.3189 25.916Z" fill="white"/>
<path d="M17.1076 10.9785C17.422 10.9871 17.722 11.1123 17.9491 11.3298C18.1819 11.534 18.3739 11.824 18.4923 12.1631C18.5625 12.3561 18.6038 12.5584 18.6149 12.7635C18.6255 12.9621 18.602 13.161 18.5454 13.3517C18.497 13.5235 18.4136 13.6834 18.3004 13.8214C18.1872 13.9552 18.0406 14.0567 17.8756 14.1155C17.7731 14.1514 17.6614 14.1707 17.5529 14.1727C17.2388 14.163 16.9392 14.0379 16.7114 13.8214C16.4624 13.5936 16.2743 13.3072 16.1641 12.9882C16.0261 12.6153 16.0048 12.2093 16.1028 11.824C16.1431 11.6463 16.2263 11.4811 16.3453 11.3429C16.4642 11.2048 16.6152 11.0979 16.785 11.0316H16.7931C16.8942 10.9963 17.0006 10.9783 17.1076 10.9785ZM19.587 11.1011C19.8117 11.1011 20.0241 11.2073 20.1956 11.387C20.3386 11.5422 20.453 11.7546 20.5061 11.9956C20.5656 12.2434 20.5514 12.5032 20.4652 12.7431C20.4244 12.8645 20.3542 12.9739 20.2608 13.0615C20.1674 13.1492 20.0538 13.2124 19.9301 13.2455C19.8806 13.2569 19.8298 13.2623 19.779 13.2618C19.6634 13.2583 19.5497 13.2311 19.445 13.182C19.3404 13.1328 19.2469 13.0626 19.1704 12.9759C19.0153 12.8038 18.9082 12.5939 18.86 12.3673C18.801 12.1208 18.8152 11.8624 18.9008 11.6239C18.9414 11.5013 19.012 11.3907 19.1062 11.3023C19.2003 11.2138 19.315 11.1503 19.44 11.1174L19.4686 11.1133C19.5092 11.107 19.546 11.1029 19.587 11.1011ZM20.8247 12.4204C20.8369 12.2039 20.9063 12.0119 21.0207 11.8649C21.0773 11.782 21.1527 11.7136 21.2407 11.6653C21.3287 11.617 21.4269 11.5903 21.5272 11.5871H21.5435C21.6421 11.5937 21.7369 11.6277 21.8172 11.6852C21.8938 11.7385 21.9591 11.8066 22.0092 11.8853C22.0664 11.9742 22.1079 12.0723 22.1317 12.1753C22.1657 12.3244 22.1687 12.4789 22.1406 12.6293C22.1125 12.7796 22.0539 12.9226 21.9683 13.0494C21.9145 13.1337 21.841 13.2037 21.7542 13.2535C21.6675 13.3033 21.57 13.3314 21.47 13.3353H21.4414C21.343 13.3279 21.2485 13.2941 21.1678 13.2373C21.0906 13.183 21.0252 13.1135 20.9758 13.0331C20.9189 12.944 20.8775 12.8459 20.8532 12.7431C20.8291 12.6359 20.8209 12.5258 20.8287 12.4163L20.8247 12.4204ZM22.34 12.6777C22.3879 12.4912 22.482 12.3198 22.6137 12.1794C22.6892 12.0966 22.7824 12.0319 22.8863 11.9902C22.9903 11.9484 23.1024 11.9307 23.2142 11.9384C23.2346 11.9384 23.255 11.9466 23.2795 11.9547C23.3898 11.9792 23.4878 12.0364 23.5695 12.1181C23.639 12.1876 23.6921 12.2733 23.737 12.3755C23.7778 12.4776 23.8023 12.596 23.8064 12.7145C23.8146 12.8786 23.7862 13.0426 23.7233 13.1944C23.6604 13.3463 23.5647 13.4823 23.4429 13.5927C23.3619 13.6723 23.2623 13.7304 23.1532 13.7618C23.0441 13.7932 22.9288 13.7968 22.818 13.7724C22.7308 13.7497 22.6499 13.7078 22.581 13.6499C22.5155 13.5962 22.4601 13.5312 22.4177 13.4579C22.3526 13.341 22.3136 13.2114 22.3033 13.078C22.2923 12.9435 22.3048 12.808 22.34 12.6777ZM23.8269 13.5968C23.88 13.4489 23.9734 13.3187 24.0964 13.221C24.2197 13.1192 24.3736 13.0616 24.5335 13.0576C24.653 13.0564 24.7695 13.0952 24.8643 13.1679C24.9297 13.2174 24.9839 13.28 25.0236 13.3517V13.3558C25.0701 13.4413 25.0967 13.5363 25.1013 13.6335C25.1015 13.7591 25.0733 13.8831 25.0188 13.9963C24.9644 14.1095 24.885 14.2089 24.7867 14.2871C24.648 14.401 24.4718 14.4592 24.2925 14.4504C24.2016 14.4411 24.1145 14.4094 24.0389 14.358C23.9633 14.3067 23.9017 14.2374 23.8595 14.1564C23.812 14.0697 23.7855 13.9732 23.7819 13.8745C23.7783 13.7785 23.7936 13.6869 23.8269 13.5968Z" fill="white"/>
<path d="M10.9775 22.9362C11.0799 22.9355 11.1822 22.9287 11.2838 22.9158L11.4146 22.8791L11.6515 22.7688C13.2567 22.1561 13.0402 21.1758 12.7584 19.9218C12.7054 19.6835 12.6591 19.4438 12.6195 19.2029C12.497 17.761 13.2404 16.8828 13.9593 16.0332C14.282 15.6534 14.5924 15.2858 14.8497 14.861C15.1388 14.4062 15.3281 13.8952 15.4052 13.3619C15.4489 13.0777 15.4365 12.7876 15.3685 12.5082C15.3016 12.2366 15.1715 11.9847 14.9886 11.773C14.5842 11.3155 13.9674 11.0582 13.3384 10.9193C12.8022 10.8092 12.256 10.7558 11.7086 10.76C11.1445 10.7605 10.5815 10.8097 10.0258 10.907H10.0135C8.95152 11.1644 8.17953 11.871 7.68938 13.0188C7.2319 14.093 7.03175 15.5635 7.08894 17.4261C7.12978 18.4799 7.59952 20.1056 8.40827 21.2942C9.04956 22.2459 9.9155 22.9403 10.9816 22.9403L10.9775 22.9362Z" fill="white"/>
<path d="M15.1928 7.99463C14.8787 8.00432 14.5792 8.12938 14.3514 8.34591C13.9491 8.71903 13.7099 9.23555 13.6856 9.78369C13.6741 9.98069 13.6962 10.1782 13.7509 10.3678C13.8001 10.5414 13.885 10.7028 14.0001 10.8416C14.1133 10.9754 14.2598 11.0769 14.4249 11.1357H14.429C14.5317 11.1702 14.6393 11.1881 14.7476 11.1888C15.0617 11.1791 15.3613 11.0541 15.589 10.8375C15.8365 10.6092 16.0233 10.3228 16.1323 10.0043C16.2708 9.63307 16.2936 9.22863 16.1976 8.84423C16.1574 8.66645 16.0741 8.50126 15.9552 8.36312C15.8363 8.22497 15.6853 8.11808 15.5155 8.05181H15.5073C15.4065 8.01508 15.3001 7.99574 15.1928 7.99463ZM12.7094 8.11717C12.5941 8.12125 12.4808 8.14912 12.3768 8.19902C12.2728 8.24893 12.1802 8.3198 12.1048 8.40718C11.951 8.57855 11.844 8.7868 11.7944 9.0117C11.7349 9.25952 11.7491 9.51933 11.8353 9.75919C11.8755 9.88133 11.9455 9.99157 12.0389 10.08C12.1323 10.1684 12.2462 10.2322 12.3703 10.2657C12.4199 10.2771 12.4706 10.2825 12.5215 10.282C12.6367 10.2775 12.7498 10.2494 12.8537 10.1995C12.9577 10.1496 13.0503 10.079 13.126 9.99201C13.282 9.82152 13.3904 9.61306 13.4405 9.38748C13.5003 9.13969 13.4861 8.8798 13.3997 8.64C13.3591 8.51737 13.2885 8.40682 13.1943 8.31838C13.1002 8.22993 12.9854 8.16639 12.8605 8.13351H12.8319C12.7914 8.12586 12.7505 8.12041 12.7094 8.11717ZM11.4758 9.44059C11.4663 9.23895 11.3982 9.04448 11.2798 8.88099C11.2228 8.79752 11.1468 8.7288 11.058 8.68051C10.9692 8.63221 10.8702 8.60573 10.7692 8.60324H10.7569C10.6584 8.60982 10.5636 8.64377 10.4833 8.70127C10.4063 8.75584 10.341 8.82529 10.2913 8.9055C10.2345 8.99315 10.193 9.08984 10.1687 9.19142C10.1336 9.3409 10.1296 9.49601 10.1571 9.64709C10.1845 9.79817 10.2427 9.94199 10.328 10.0696C10.4506 10.2453 10.6303 10.3555 10.8264 10.3555H10.8631C10.9615 10.3481 11.0561 10.3143 11.1368 10.2575C11.2125 10.2028 11.2764 10.1333 11.3247 10.0533C11.382 9.96294 11.4234 9.86348 11.4472 9.75919C11.4723 9.65357 11.4819 9.54488 11.4758 9.4365V9.44059ZM9.96042 9.69383C9.91196 9.50879 9.81787 9.33886 9.68675 9.19959C9.61168 9.11603 9.51866 9.05057 9.41466 9.00813C9.31067 8.96568 9.19841 8.94735 9.08631 8.95451C8.95139 8.97115 8.8261 9.03307 8.73095 9.13015C8.65744 9.20618 8.60042 9.29657 8.56348 9.39565C8.52151 9.50256 8.49803 9.61582 8.49404 9.73059C8.49177 9.84495 8.50551 9.95907 8.53489 10.0696C8.59207 10.2861 8.71052 10.4781 8.85757 10.6088C9.03729 10.7722 9.26195 10.8457 9.48252 10.7885C9.56783 10.7665 9.64729 10.726 9.71534 10.6701C9.78093 10.6164 9.83629 10.5514 9.87873 10.4781C9.94381 10.3612 9.98283 10.2316 9.9931 10.0982C10.0059 9.96254 9.99481 9.82569 9.96042 9.69383ZM8.46953 10.6088C8.41502 10.4639 8.32177 10.3367 8.19995 10.2412C8.07664 10.1394 7.92275 10.0818 7.76289 10.0778C7.73022 10.0778 7.69754 10.0778 7.64852 10.086C7.56958 10.1032 7.49556 10.1381 7.43204 10.1881C7.36819 10.238 7.31535 10.3006 7.27682 10.3719C7.22831 10.4583 7.20036 10.5547 7.19513 10.6537C7.19491 10.7793 7.22309 10.9033 7.27755 11.0165C7.33202 11.1297 7.41136 11.2291 7.50965 11.3073C7.64945 11.4222 7.82727 11.4805 8.00797 11.4706L8.06107 11.4584C8.14171 11.4421 8.21767 11.4079 8.2834 11.3585C8.34913 11.309 8.40296 11.2454 8.44094 11.1725C8.48641 11.0867 8.51157 10.9917 8.51446 10.8947C8.51989 10.7976 8.506 10.7005 8.47362 10.6088H8.46953Z" fill="white"/>
</svg>
