<?xml version="1.0" encoding="UTF-8" standalone="no"?>
<!-- Created with Inkscape (http://www.inkscape.org/) -->

<svg
   width="723.24414"
   height="674.55615"
   viewBox="0 0 191.35834 178.47631"
   version="1.1"
   id="svg5"
   xmlns="http://www.w3.org/2000/svg"
   xmlns:svg="http://www.w3.org/2000/svg">
  <defs
     id="defs2" />
  <g
     id="layer1"
     style="display:none"
     transform="translate(-26.727001,-19.829543)">
    <circle
       style="fill:none;stroke:#000000;stroke-width:0.264583"
       id="path1200"
       cx="132.29167"
       cy="66.145836"
       r="9.7531776" />
    <circle
       style="fill:none;stroke:#000000;stroke-width:0.264583"
       id="circle1202"
       cx="189.57564"
       cy="165.36458"
       r="9.7531776" />
    <circle
       style="fill:none;stroke:#000000;stroke-width:0.264583"
       id="circle1204"
       cx="75.007698"
       cy="165.36458"
       r="9.7531776" />
    <circle
       style="fill:none;stroke:#000000;stroke-width:0.264583"
       id="circle1206"
       cx="93.76432"
       cy="39.724537"
       r="9.7531776" />
    <circle
       style="fill:none;stroke:#000000;stroke-width:0.264583"
       id="circle1208"
       cx="151.04829"
       cy="39.724548"
       r="9.7531776" />
    <circle
       style="fill:none;stroke:#000000;stroke-width:0.264583"
       id="circle1210"
       cx="122.4063"
       cy="89.333916"
       r="9.7531776" />
    <circle
       style="fill:none;stroke:#000000;stroke-width:0.264583"
       id="circle1295"
       cx="208.33217"
       cy="138.94278"
       r="9.7531776" />
    <circle
       style="fill:none;stroke:#000000;stroke-width:0.264583"
       id="circle1297"
       cx="151.04819"
       cy="138.94276"
       r="9.7531776" />
    <circle
       style="fill:none;stroke:#000000;stroke-width:0.264583"
       id="circle1299"
       cx="179.69017"
       cy="188.55214"
       r="9.7531776" />
    <circle
       style="fill:none;stroke:#000000;stroke-width:0.264583"
       id="circle1301"
       cx="36.480179"
       cy="138.9433"
       r="9.7531776" />
    <circle
       style="fill:none;stroke:#000000;stroke-width:0.264583"
       id="circle1303"
       cx="65.122162"
       cy="188.55267"
       r="9.7531776" />
    <circle
       style="fill:none;stroke:#000000;stroke-width:0.264583"
       id="circle1305"
       cx="93.764145"
       cy="138.9433"
       r="9.7531776" />
  </g>
  <g
     id="g1331"
     style="display:inline"
     transform="translate(-26.727001,-19.829543)">
    <rect
       style="display:inline;fill:#ffffff;stroke-width:4.14984"
       id="rect6756"
       width="215.39841"
       height="200.89803"
       x="14.706964"
       y="8.6186819"
       transform="matrix(0.88839252,0,0,0.88839252,13.661444,12.17277)" />
    <g
       id="g4927"
       transform="matrix(0.88839252,0,0,0.88839252,13.661444,12.17277)"
       style="display:inline">
      <circle
         style="fill:#ff66ff;fill-opacity:1;stroke:none;stroke-width:0.264583"
         id="circle1313"
         cx="93.76432"
         cy="39.724537"
         r="9.7531776" />
      <circle
         style="fill:#6666ff;fill-opacity:1;stroke:none;stroke-width:0.264583"
         id="circle1315"
         cx="151.04829"
         cy="39.724548"
         r="9.7531776" />
      <circle
         style="fill:#ff6666;fill-opacity:1;stroke:none;stroke-width:0.264583"
         id="circle1317"
         cx="122.4063"
         cy="89.333916"
         r="9.7531776" />
      <circle
         style="fill:#ffff66;fill-opacity:1;stroke:none;stroke-width:0.264583"
         id="circle1319"
         cx="208.33217"
         cy="138.94278"
         r="9.7531776" />
      <circle
         style="fill:#66ff66;fill-opacity:1;stroke:none;stroke-width:0.264583"
         id="circle1321"
         cx="151.04819"
         cy="138.94276"
         r="9.7531776" />
      <circle
         style="fill:#ff6666;fill-opacity:1;stroke:none;stroke-width:0.264583"
         id="circle1323"
         cx="179.69017"
         cy="188.55214"
         r="9.7531776" />
      <circle
         style="fill:#66ff66;fill-opacity:1;stroke:none;stroke-width:0.264583"
         id="circle1325"
         cx="36.480179"
         cy="138.9433"
         r="9.7531776" />
      <circle
         style="fill:#66ffff;fill-opacity:1;stroke:none;stroke-width:0.264583"
         id="circle1327"
         cx="65.122162"
         cy="188.55267"
         r="9.7531776" />
      <circle
         style="fill:#6666ff;fill-opacity:1;stroke:none;stroke-width:0.264583"
         id="circle1329"
         cx="93.764145"
         cy="138.9433"
         r="9.7531776" />
      <g
         id="path2110"
         style="fill:#7a7a7a;fill-opacity:1"
         transform="rotate(120,124.04094,121.6774)">
        <path
           style="color:#000000;fill:#7a7a7a;fill-opacity:1;-inkscape-stroke:none"
           d="m 108.60156,93.197266 c 0,0 -19.02333,10.048054 -17.562498,32.634764 l 0.791016,-0.0508 C 90.398816,103.65174 108.97266,93.898438 108.97266,93.898437 Z"
           id="path4234" />
        <g
           id="g4224"
           style="fill:#7a7a7a;fill-opacity:1;stroke-width:1.00012;stroke-dasharray:none">
          <g
             id="path4226"
             style="fill:#7a7a7a;fill-opacity:1;stroke-width:1.00012;stroke-dasharray:none">
            <path
               style="color:#000000;fill:#7a7a7a;fill-opacity:1;fill-rule:evenodd;stroke-width:1.00012;stroke-dasharray:none"
               d="m 110.43281,92.681652 -1.71588,2.724965 -1.50182,-2.851776 z"
               id="path4230" />
            <path
               style="color:#000000;fill:#7a7a7a;fill-opacity:1;fill-rule:evenodd;stroke-width:1.00012;stroke-dasharray:none"
               d="m 106.85156,92.326172 1.84961,3.509765 2.11133,-3.353515 -0.37109,-0.01563 z m 0.72657,0.457031 2.4746,0.09961 -1.32031,2.095704 z"
               id="path4232" />
          </g>
        </g>
      </g>
      <g
         id="g4246"
         style="fill:#7a7a7a;fill-opacity:1"
         transform="translate(-2.1869181,-0.79861029)">
        <path
           style="color:#000000;fill:#7a7a7a;fill-opacity:1;-inkscape-stroke:none"
           d="m 108.60156,93.197266 c 0,0 -19.02333,10.048054 -17.562498,32.634764 l 0.791016,-0.0508 C 90.398816,103.65174 108.97266,93.898438 108.97266,93.898437 Z"
           id="path4236" />
        <g
           id="g4244"
           style="fill:#7a7a7a;fill-opacity:1;stroke-width:1.00012;stroke-dasharray:none">
          <g
             id="g4242"
             style="fill:#7a7a7a;fill-opacity:1;stroke-width:1.00012;stroke-dasharray:none">
            <path
               style="color:#000000;fill:#7a7a7a;fill-opacity:1;fill-rule:evenodd;stroke-width:1.00012;stroke-dasharray:none"
               d="m 110.43281,92.681652 -1.71588,2.724965 -1.50182,-2.851776 z"
               id="path4238" />
            <path
               style="color:#000000;fill:#7a7a7a;fill-opacity:1;fill-rule:evenodd;stroke-width:1.00012;stroke-dasharray:none"
               d="m 106.85156,92.326172 1.84961,3.509765 2.11133,-3.353515 -0.37109,-0.01563 z m 0.72657,0.457031 2.4746,0.09961 -1.32031,2.095704 z"
               id="path4240" />
          </g>
        </g>
      </g>
      <g
         id="g4258"
         style="fill:#7a7a7a;fill-opacity:1"
         transform="rotate(-120,123.67907,124.36662)">
        <path
           style="color:#000000;fill:#7a7a7a;fill-opacity:1;-inkscape-stroke:none"
           d="m 108.60156,93.197266 c 0,0 -19.02333,10.048054 -17.562498,32.634764 l 0.791016,-0.0508 C 90.398816,103.65174 108.97266,93.898438 108.97266,93.898437 Z"
           id="path4248" />
        <g
           id="g4256"
           style="fill:#7a7a7a;fill-opacity:1;stroke-width:1.00012;stroke-dasharray:none">
          <g
             id="g4254"
             style="fill:#7a7a7a;fill-opacity:1;stroke-width:1.00012;stroke-dasharray:none">
            <path
               style="color:#000000;fill:#7a7a7a;fill-opacity:1;fill-rule:evenodd;stroke-width:1.00012;stroke-dasharray:none"
               d="m 110.43281,92.681652 -1.71588,2.724965 -1.50182,-2.851776 z"
               id="path4250" />
            <path
               style="color:#000000;fill:#7a7a7a;fill-opacity:1;fill-rule:evenodd;stroke-width:1.00012;stroke-dasharray:none"
               d="m 106.85156,92.326172 1.84961,3.509765 2.11133,-3.353515 -0.37109,-0.01563 z m 0.72657,0.457031 2.4746,0.09961 -1.32031,2.095704 z"
               id="path4252" />
          </g>
        </g>
      </g>
      <g
         id="g4314"
         transform="rotate(180,127.1953,69.674926)">
        <g
           id="g4270"
           style="fill:#7a7a7a;fill-opacity:1"
           transform="rotate(120,139.75885,105.24236)">
          <path
             style="color:#000000;fill:#7a7a7a;fill-opacity:1;-inkscape-stroke:none"
             d="m 108.60156,93.197266 c 0,0 -19.02333,10.048054 -17.562498,32.634764 l 0.791016,-0.0508 C 90.398816,103.65174 108.97266,93.898438 108.97266,93.898437 Z"
             id="path4260" />
          <g
             id="g4268"
             style="fill:#7a7a7a;fill-opacity:1;stroke-width:1.00012;stroke-dasharray:none">
            <g
               id="g4266"
               style="fill:#7a7a7a;fill-opacity:1;stroke-width:1.00012;stroke-dasharray:none">
              <path
                 style="color:#000000;fill:#7a7a7a;fill-opacity:1;fill-rule:evenodd;stroke-width:1.00012;stroke-dasharray:none"
                 d="m 110.43281,92.681652 -1.71588,2.724965 -1.50182,-2.851776 z"
                 id="path4262" />
              <path
                 style="color:#000000;fill:#7a7a7a;fill-opacity:1;fill-rule:evenodd;stroke-width:1.00012;stroke-dasharray:none"
                 d="m 106.85156,92.326172 1.84961,3.509765 2.11133,-3.353515 -0.37109,-0.01563 z m 0.72657,0.457031 2.4746,0.09961 -1.32031,2.095704 z"
                 id="path4264" />
            </g>
          </g>
        </g>
        <g
           id="g4282"
           style="fill:#7a7a7a;fill-opacity:1"
           transform="translate(7.1567788,-39.063274)">
          <path
             style="color:#000000;fill:#7a7a7a;fill-opacity:1;-inkscape-stroke:none"
             d="m 108.60156,93.197266 c 0,0 -19.02333,10.048054 -17.562498,32.634764 l 0.791016,-0.0508 C 90.398816,103.65174 108.97266,93.898438 108.97266,93.898437 Z"
             id="path4272" />
          <g
             id="g4280"
             style="fill:#7a7a7a;fill-opacity:1;stroke-width:1.00012;stroke-dasharray:none">
            <g
               id="g4278"
               style="fill:#7a7a7a;fill-opacity:1;stroke-width:1.00012;stroke-dasharray:none">
              <path
                 style="color:#000000;fill:#7a7a7a;fill-opacity:1;fill-rule:evenodd;stroke-width:1.00012;stroke-dasharray:none"
                 d="m 110.43281,92.681652 -1.71588,2.724965 -1.50182,-2.851776 z"
                 id="path4274" />
              <path
                 style="color:#000000;fill:#7a7a7a;fill-opacity:1;fill-rule:evenodd;stroke-width:1.00012;stroke-dasharray:none"
                 d="m 106.85156,92.326172 1.84961,3.509765 2.11133,-3.353515 -0.37109,-0.01563 z m 0.72657,0.457031 2.4746,0.09961 -1.32031,2.095704 z"
                 id="path4276" />
            </g>
          </g>
        </g>
        <g
           id="g4294"
           style="fill:#7a7a7a;fill-opacity:1"
           transform="rotate(-120,117.30486,102.537)">
          <path
             style="color:#000000;fill:#7a7a7a;fill-opacity:1;-inkscape-stroke:none"
             d="m 108.60156,93.197266 c 0,0 -19.02333,10.048054 -17.562498,32.634764 l 0.791016,-0.0508 C 90.398816,103.65174 108.97266,93.898438 108.97266,93.898437 Z"
             id="path4284" />
          <g
             id="g4292"
             style="fill:#7a7a7a;fill-opacity:1;stroke-width:1.00012;stroke-dasharray:none">
            <g
               id="g4290"
               style="fill:#7a7a7a;fill-opacity:1;stroke-width:1.00012;stroke-dasharray:none">
              <path
                 style="color:#000000;fill:#7a7a7a;fill-opacity:1;fill-rule:evenodd;stroke-width:1.00012;stroke-dasharray:none"
                 d="m 110.43281,92.681652 -1.71588,2.724965 -1.50182,-2.851776 z"
                 id="path4286" />
              <path
                 style="color:#000000;fill:#7a7a7a;fill-opacity:1;fill-rule:evenodd;stroke-width:1.00012;stroke-dasharray:none"
                 d="m 106.85156,92.326172 1.84961,3.509765 2.11133,-3.353515 -0.37109,-0.01563 z m 0.72657,0.457031 2.4746,0.09961 -1.32031,2.095704 z"
                 id="path4288" />
            </g>
          </g>
        </g>
      </g>
      <g
         id="g4352"
         transform="rotate(180,98.496802,119.95291)">
        <g
           id="g4326"
           style="fill:#7a7a7a;fill-opacity:1"
           transform="rotate(120,139.75885,105.24236)">
          <path
             style="color:#000000;fill:#7a7a7a;fill-opacity:1;-inkscape-stroke:none"
             d="m 108.60156,93.197266 c 0,0 -19.02333,10.048054 -17.562498,32.634764 l 0.791016,-0.0508 C 90.398816,103.65174 108.97266,93.898438 108.97266,93.898437 Z"
             id="path4316" />
          <g
             id="g4324"
             style="fill:#7a7a7a;fill-opacity:1;stroke-width:1.00012;stroke-dasharray:none">
            <g
               id="g4322"
               style="fill:#7a7a7a;fill-opacity:1;stroke-width:1.00012;stroke-dasharray:none">
              <path
                 style="color:#000000;fill:#7a7a7a;fill-opacity:1;fill-rule:evenodd;stroke-width:1.00012;stroke-dasharray:none"
                 d="m 110.43281,92.681652 -1.71588,2.724965 -1.50182,-2.851776 z"
                 id="path4318" />
              <path
                 style="color:#000000;fill:#7a7a7a;fill-opacity:1;fill-rule:evenodd;stroke-width:1.00012;stroke-dasharray:none"
                 d="m 106.85156,92.326172 1.84961,3.509765 2.11133,-3.353515 -0.37109,-0.01563 z m 0.72657,0.457031 2.4746,0.09961 -1.32031,2.095704 z"
                 id="path4320" />
            </g>
          </g>
        </g>
        <g
           id="g4338"
           style="fill:#7a7a7a;fill-opacity:1"
           transform="translate(7.1567788,-39.063274)">
          <path
             style="color:#000000;fill:#7a7a7a;fill-opacity:1;-inkscape-stroke:none"
             d="m 108.60156,93.197266 c 0,0 -19.02333,10.048054 -17.562498,32.634764 l 0.791016,-0.0508 C 90.398816,103.65174 108.97266,93.898438 108.97266,93.898437 Z"
             id="path4328" />
          <g
             id="g4336"
             style="fill:#7a7a7a;fill-opacity:1;stroke-width:1.00012;stroke-dasharray:none">
            <g
               id="g4334"
               style="fill:#7a7a7a;fill-opacity:1;stroke-width:1.00012;stroke-dasharray:none">
              <path
                 style="color:#000000;fill:#7a7a7a;fill-opacity:1;fill-rule:evenodd;stroke-width:1.00012;stroke-dasharray:none"
                 d="m 110.43281,92.681652 -1.71588,2.724965 -1.50182,-2.851776 z"
                 id="path4330" />
              <path
                 style="color:#000000;fill:#7a7a7a;fill-opacity:1;fill-rule:evenodd;stroke-width:1.00012;stroke-dasharray:none"
                 d="m 106.85156,92.326172 1.84961,3.509765 2.11133,-3.353515 -0.37109,-0.01563 z m 0.72657,0.457031 2.4746,0.09961 -1.32031,2.095704 z"
                 id="path4332" />
            </g>
          </g>
        </g>
        <g
           id="g4350"
           style="fill:#7a7a7a;fill-opacity:1"
           transform="rotate(-120,117.30486,102.537)">
          <path
             style="color:#000000;fill:#7a7a7a;fill-opacity:1;-inkscape-stroke:none"
             d="m 108.60156,93.197266 c 0,0 -19.02333,10.048054 -17.562498,32.634764 l 0.791016,-0.0508 C 90.398816,103.65174 108.97266,93.898438 108.97266,93.898437 Z"
             id="path4340" />
          <g
             id="g4348"
             style="fill:#7a7a7a;fill-opacity:1;stroke-width:1.00012;stroke-dasharray:none">
            <g
               id="g4346"
               style="fill:#7a7a7a;fill-opacity:1;stroke-width:1.00012;stroke-dasharray:none">
              <path
                 style="color:#000000;fill:#7a7a7a;fill-opacity:1;fill-rule:evenodd;stroke-width:1.00012;stroke-dasharray:none"
                 d="m 110.43281,92.681652 -1.71588,2.724965 -1.50182,-2.851776 z"
                 id="path4342" />
              <path
                 style="color:#000000;fill:#7a7a7a;fill-opacity:1;fill-rule:evenodd;stroke-width:1.00012;stroke-dasharray:none"
                 d="m 106.85156,92.326172 1.84961,3.509765 2.11133,-3.353515 -0.37109,-0.01563 z m 0.72657,0.457031 2.4746,0.09961 -1.32031,2.095704 z"
                 id="path4344" />
            </g>
          </g>
        </g>
      </g>
      <g
         id="g4390"
         transform="rotate(180,155.8938,119.95291)">
        <g
           id="g4364"
           style="fill:#7a7a7a;fill-opacity:1"
           transform="rotate(120,139.75885,105.24236)">
          <path
             style="color:#000000;fill:#7a7a7a;fill-opacity:1;-inkscape-stroke:none"
             d="m 108.60156,93.197266 c 0,0 -19.02333,10.048054 -17.562498,32.634764 l 0.791016,-0.0508 C 90.398816,103.65174 108.97266,93.898438 108.97266,93.898437 Z"
             id="path4354" />
          <g
             id="g4362"
             style="fill:#7a7a7a;fill-opacity:1;stroke-width:1.00012;stroke-dasharray:none">
            <g
               id="g4360"
               style="fill:#7a7a7a;fill-opacity:1;stroke-width:1.00012;stroke-dasharray:none">
              <path
                 style="color:#000000;fill:#7a7a7a;fill-opacity:1;fill-rule:evenodd;stroke-width:1.00012;stroke-dasharray:none"
                 d="m 110.43281,92.681652 -1.71588,2.724965 -1.50182,-2.851776 z"
                 id="path4356" />
              <path
                 style="color:#000000;fill:#7a7a7a;fill-opacity:1;fill-rule:evenodd;stroke-width:1.00012;stroke-dasharray:none"
                 d="m 106.85156,92.326172 1.84961,3.509765 2.11133,-3.353515 -0.37109,-0.01563 z m 0.72657,0.457031 2.4746,0.09961 -1.32031,2.095704 z"
                 id="path4358" />
            </g>
          </g>
        </g>
        <g
           id="g4376"
           style="fill:#7a7a7a;fill-opacity:1"
           transform="translate(7.1567788,-39.063274)">
          <path
             style="color:#000000;fill:#7a7a7a;fill-opacity:1;-inkscape-stroke:none"
             d="m 108.60156,93.197266 c 0,0 -19.02333,10.048054 -17.562498,32.634764 l 0.791016,-0.0508 C 90.398816,103.65174 108.97266,93.898438 108.97266,93.898437 Z"
             id="path4366" />
          <g
             id="g4374"
             style="fill:#7a7a7a;fill-opacity:1;stroke-width:1.00012;stroke-dasharray:none">
            <g
               id="g4372"
               style="fill:#7a7a7a;fill-opacity:1;stroke-width:1.00012;stroke-dasharray:none">
              <path
                 style="color:#000000;fill:#7a7a7a;fill-opacity:1;fill-rule:evenodd;stroke-width:1.00012;stroke-dasharray:none"
                 d="m 110.43281,92.681652 -1.71588,2.724965 -1.50182,-2.851776 z"
                 id="path4368" />
              <path
                 style="color:#000000;fill:#7a7a7a;fill-opacity:1;fill-rule:evenodd;stroke-width:1.00012;stroke-dasharray:none"
                 d="m 106.85156,92.326172 1.84961,3.509765 2.11133,-3.353515 -0.37109,-0.01563 z m 0.72657,0.457031 2.4746,0.09961 -1.32031,2.095704 z"
                 id="path4370" />
            </g>
          </g>
        </g>
        <g
           id="g4388"
           style="fill:#7a7a7a;fill-opacity:1"
           transform="rotate(-120,117.30486,102.537)">
          <path
             style="color:#000000;fill:#7a7a7a;fill-opacity:1;-inkscape-stroke:none"
             d="m 108.60156,93.197266 c 0,0 -19.02333,10.048054 -17.562498,32.634764 l 0.791016,-0.0508 C 90.398816,103.65174 108.97266,93.898438 108.97266,93.898437 Z"
             id="path4378" />
          <g
             id="g4386"
             style="fill:#7a7a7a;fill-opacity:1;stroke-width:1.00012;stroke-dasharray:none">
            <g
               id="g4384"
               style="fill:#7a7a7a;fill-opacity:1;stroke-width:1.00012;stroke-dasharray:none">
              <path
                 style="color:#000000;fill:#7a7a7a;fill-opacity:1;fill-rule:evenodd;stroke-width:1.00012;stroke-dasharray:none"
                 d="m 110.43281,92.681652 -1.71588,2.724965 -1.50182,-2.851776 z"
                 id="path4380" />
              <path
                 style="color:#000000;fill:#7a7a7a;fill-opacity:1;fill-rule:evenodd;stroke-width:1.00012;stroke-dasharray:none"
                 d="m 106.85156,92.326172 1.84961,3.509765 2.11133,-3.353515 -0.37109,-0.01563 z m 0.72657,0.457031 2.4746,0.09961 -1.32031,2.095704 z"
                 id="path4382" />
            </g>
          </g>
        </g>
      </g>
      <g
         aria-label="1"
         id="text4707"
         style="font-size:10.5023px;fill:#ffffff;stroke-width:3.30822">
        <path
           d="m 124.47293,93.164589 h -4.13323 v -0.779468 h 1.5897 v -5.11782 h -1.5897 v -0.697418 q 0.32307,0 0.69229,-0.05128 0.36922,-0.05641 0.55896,-0.15897 0.23589,-0.128202 0.36922,-0.323069 0.13846,-0.199995 0.15897,-0.53332 h 0.79485 v 6.881878 h 1.55894 z"
           id="path5391" />
      </g>
      <g
         aria-label="2"
         id="text4711"
         style="font-size:10.5023px;fill:#ffffff;stroke-width:3.30822">
        <path
           d="m 182.27472,192.44948 h -5.1691 v -1.07177 q 0.53845,-0.46153 1.0769,-0.92305 0.54357,-0.46153 1.01023,-0.91793 0.98459,-0.95382 1.34868,-1.51278 0.36409,-0.56409 0.36409,-1.21536 0,-0.59485 -0.39486,-0.92818 -0.38973,-0.33845 -1.09228,-0.33845 -0.46665,0 -1.01023,0.1641 -0.54358,0.1641 -1.06151,0.50255 h -0.0513 v -1.0769 q 0.36409,-0.17948 0.9692,-0.32819 0.61025,-0.14872 1.17946,-0.14872 1.17433,0 1.84098,0.56922 0.66665,0.56409 0.66665,1.53329 0,0.43589 -0.11282,0.81537 -0.10769,0.37435 -0.32307,0.7128 -0.19999,0.31794 -0.47178,0.62563 -0.26666,0.30768 -0.65126,0.68203 -0.54871,0.53845 -1.13331,1.04613 -0.5846,0.50255 -1.09228,0.93331 h 4.10759 z"
           id="path5394" />
      </g>
      <g
         aria-label="1"
         id="text4817"
         style="font-size:10.5023px;fill:#ffffff;stroke-width:3.30822">
        <path
           d="m 153.1148,142.77344 h -4.13323 v -0.77947 h 1.58971 v -5.11782 h -1.58971 v -0.69742 q 0.32307,0 0.69229,-0.0513 0.36923,-0.0564 0.55897,-0.15897 0.23589,-0.1282 0.36922,-0.32307 0.13845,-0.19999 0.15897,-0.53332 h 0.79485 v 6.88188 h 1.55893 z"
           id="path5397" />
      </g>
      <g
         aria-label="1"
         id="text4821"
         style="font-size:10.5023px;fill:#ffffff;stroke-width:3.30822">
        <path
           d="m 95.830762,142.77397 h -4.13323 v -0.77947 h 1.589704 v -5.11782 h -1.589704 v -0.69741 q 0.323069,0 0.69229,-0.0513 0.369222,-0.0564 0.558961,-0.15897 0.235891,-0.1282 0.369221,-0.32306 0.138458,-0.2 0.158971,-0.53332 h 0.794851 v 6.88187 h 1.558936 z"
           id="path5400" />
      </g>
      <g
         aria-label="2"
         id="text4825"
         style="font-size:10.5023px;fill:#ffffff;stroke-width:3.30822">
        <path
           d="m 153.63284,43.621887 h -5.1691 v -1.071768 q 0.53845,-0.461527 1.0769,-0.923053 0.54357,-0.461527 1.01023,-0.917926 0.98459,-0.953822 1.34868,-1.512783 0.3641,-0.564088 0.3641,-1.215354 0,-0.594857 -0.39486,-0.928182 -0.38974,-0.338453 -1.09228,-0.338453 -0.46666,0 -1.01024,0.164099 -0.54357,0.164098 -1.06151,0.502551 h -0.0513 v -1.076896 q 0.3641,-0.179482 0.96921,-0.328197 0.61024,-0.148714 1.17946,-0.148714 1.17433,0 1.84098,0.569217 0.66664,0.564088 0.66664,1.533295 0,0.435886 -0.11281,0.815364 -0.10769,0.374349 -0.32307,0.712802 -0.2,0.317941 -0.47178,0.625626 -0.26666,0.307684 -0.65127,0.682034 -0.5487,0.538448 -1.13331,1.046127 -0.5846,0.502552 -1.09228,0.93331 h 4.10759 z"
           id="path5403" />
      </g>
      <g
         aria-label="2"
         id="text4829"
         style="font-size:10.5023px;fill:#ffffff;stroke-width:3.30822">
        <path
           d="m 39.064729,142.84064 h -5.169101 v -1.07177 q 0.538448,-0.46153 1.076896,-0.92305 0.543576,-0.46153 1.010231,-0.91793 0.98459,-0.95382 1.348684,-1.51278 0.364093,-0.56409 0.364093,-1.21536 0,-0.59485 -0.394862,-0.92818 -0.389734,-0.33845 -1.09228,-0.33845 -0.466655,0 -1.010231,0.1641 -0.543576,0.1641 -1.061512,0.50255 h -0.05128 v -1.0769 q 0.364094,-0.17948 0.969207,-0.32819 0.610241,-0.14872 1.179457,-0.14872 1.17433,0 1.84098,0.56922 0.66665,0.56409 0.66665,1.53329 0,0.43589 -0.112818,0.81537 -0.10769,0.37435 -0.323069,0.7128 -0.199995,0.31794 -0.471783,0.62562 -0.26666,0.30769 -0.651265,0.68204 -0.548705,0.53845 -1.133305,1.04613 -0.584601,0.50255 -1.092281,0.93331 h 4.10759 z"
           id="path5406" />
      </g>
    </g>
  </g>
</svg>
