<?xml version="1.0" encoding="UTF-8" standalone="no"?>
<svg
   version="1.1"
   viewBox="0 0 793.70079 1122.5197"
   fill="none"
   stroke="none"
   stroke-linecap="square"
   stroke-miterlimit="10"
   id="svg892"
   sodipodi:docname="template-A4.svg"
   width="210mm"
   height="297mm"
   inkscape:version="1.2.2 (b0a84865, 2022-12-01)"
   inkscape:export-filename="template-A4.pdf"
   inkscape:export-xdpi="96"
   inkscape:export-ydpi="96"
   xmlns:inkscape="http://www.inkscape.org/namespaces/inkscape"
   xmlns:sodipodi="http://sodipodi.sourceforge.net/DTD/sodipodi-0.dtd"
   xmlns="http://www.w3.org/2000/svg"
   xmlns:svg="http://www.w3.org/2000/svg">
  <defs
     id="defs896" />
  <sodipodi:namedview
     id="namedview894"
     pagecolor="#ffffff"
     bordercolor="#000000"
     borderopacity="0.25"
     inkscape:showpageshadow="2"
     inkscape:pageopacity="1"
     inkscape:pagecheckerboard="0"
     inkscape:deskcolor="#d1d1d1"
     showgrid="false"
     inkscape:zoom="0.46330791"
     inkscape:cx="241.73988"
     inkscape:cy="561.18187"
     inkscape:window-width="1309"
     inkscape:window-height="780"
     inkscape:window-x="0"
     inkscape:window-y="25"
     inkscape:window-maximized="0"
     inkscape:current-layer="svg892"
     inkscape:document-units="mm" />
  <clipPath
     id="p.0">
    <path
       d="M 0,0 H 1152 V 864 H 0 Z"
       clip-rule="nonzero"
       id="path741" />
  </clipPath>
  <rect
     style="fill:#ffffff;stroke-width:17.7226"
     id="rect7948"
     width="793.70081"
     height="1122.5197"
     x="0"
     y="0" />
  <g
     clip-path="url(#p.0)"
     id="g890"
     transform="matrix(2.116371,0,0,2.116371,-39.720002,-17.526698)">
    <path
       fill="#ff00ff"
       fill-opacity="0.5192"
       d="m 341.71835,460.044 -21.43359,37.13412 42.87588,0.0474 z"
       fill-rule="evenodd"
       id="path746" />
    <path
       fill="#000000"
       fill-opacity="0"
       d="m 371.93063,502.42703 -8.77576,-5.13882 -42.94952,-0.024 -8.78226,5.12903 z"
       fill-rule="evenodd"
       id="path748" />
    <path
       fill="#0000ff"
       fill-opacity="0.5192"
       d="m 341.77267,449.8592 -0.061,10.17181 21.45831,37.20166 8.83591,5.04105 z"
       fill-rule="evenodd"
       id="path750" />
    <path
       fill="#000000"
       fill-opacity="0"
       d="m 311.3782,502.3153 8.83795,-5.03241 21.49072,-37.18616 -0.0524,-10.16949 z"
       fill-rule="evenodd"
       id="path752" />
    <path
       fill="#ff00ff"
       fill-opacity="0.5192"
       d="m 311.2363,491.79797 21.43359,-37.13416 -42.87588,-0.0474 z"
       fill-rule="evenodd"
       id="path754" />
    <path
       fill="#0000ff"
       fill-opacity="0.5192"
       d="m 281.02402,449.41495 8.77579,5.13882 42.94952,0.024 8.78223,-5.129 z"
       fill-rule="evenodd"
       id="path756" />
    <path
       fill="#000000"
       fill-opacity="0"
       d="m 311.182,501.98276 0.0609,-10.17178 -21.45831,-37.20166 -8.83591,-5.04108 z"
       fill-rule="evenodd"
       id="path758" />
    <path
       fill="#000000"
       fill-opacity="0"
       d="m 341.57648,449.52664 -8.83795,5.03241 -21.49075,37.18619 0.0524,10.16949 z"
       fill-rule="evenodd"
       id="path760" />
    <path
       fill="#00ffff"
       fill-opacity="0.5192"
       d="m 311.18375,407.1561 -21.43362,37.13415 42.87591,0.0474 z"
       fill-rule="evenodd"
       id="path762" />
    <path
       fill="#000000"
       fill-opacity="0"
       d="m 341.396,449.53915 -8.77576,-5.13885 -42.94952,-0.024 -8.78226,5.129 z"
       fill-rule="evenodd"
       id="path764" />
    <path
       fill="#00ff00"
       fill-opacity="0.5192"
       d="m 311.23804,396.9713 -0.061,10.17178 21.45831,37.20166 8.83591,5.04108 z"
       fill-rule="evenodd"
       id="path766" />
    <path
       fill="#000000"
       fill-opacity="0"
       d="m 280.84357,449.42743 8.83795,-5.03241 21.49072,-37.18616 -0.0524,-10.16952 z"
       fill-rule="evenodd"
       id="path768" />
    <path
       fill="#00ffff"
       fill-opacity="0.5192"
       d="m 280.70166,438.9101 21.43362,-37.13416 -42.87591,-0.0474 z"
       fill-rule="evenodd"
       id="path770" />
    <path
       fill="#00ff00"
       fill-opacity="0.5192"
       d="m 250.4894,396.52704 8.77577,5.13882 42.94953,0.024 8.78225,-5.12903 z"
       fill-rule="evenodd"
       id="path772" />
    <path
       fill="#000000"
       fill-opacity="0"
       d="m 280.64737,449.09488 0.061,-10.17181 -21.45834,-37.20166 -8.83589,-5.04105 z"
       fill-rule="evenodd"
       id="path774" />
    <path
       fill="#000000"
       fill-opacity="0"
       d="m 311.04184,396.63876 -8.83795,5.03241 -21.49073,37.18616 0.0524,10.16949 z"
       fill-rule="evenodd"
       id="path776" />
    <path
       fill="#ffff00"
       fill-opacity="0.5192"
       d="m 280.56653,354.31558 -21.43362,37.13416 42.87591,0.0474 z"
       fill-rule="evenodd"
       id="path778" />
    <path
       fill="#000000"
       fill-opacity="0"
       d="m 310.7788,396.6986 -8.77579,-5.13882 -42.94952,-0.024 -8.78224,5.129 z"
       fill-rule="evenodd"
       id="path780" />
    <path
       fill="#ff0000"
       fill-opacity="0.5192"
       d="m 280.62082,344.13077 -0.0609,10.17181 21.45831,37.20166 8.83591,5.04105 z"
       fill-rule="evenodd"
       id="path782" />
    <path
       fill="#000000"
       fill-opacity="0"
       d="m 250.22635,396.58688 8.83795,-5.03241 21.49075,-37.18616 -0.0524,-10.16949 z"
       fill-rule="evenodd"
       id="path784" />
    <path
       fill="#ffff00"
       fill-opacity="0.5192"
       d="m 250.08446,386.06955 21.43361,-37.13416 -42.8759,-0.0474 z"
       fill-rule="evenodd"
       id="path786" />
    <path
       fill="#ff0000"
       fill-opacity="0.5192"
       d="m 219.8722,343.68652 8.77576,5.13882 42.94952,0.024 8.78226,-5.129 z"
       fill-rule="evenodd"
       id="path788" />
    <path
       fill="#000000"
       fill-opacity="0"
       d="m 250.03017,396.25436 0.061,-10.17181 -21.45831,-37.20166 -8.83591,-5.04105 z"
       fill-rule="evenodd"
       id="path790" />
    <path
       fill="#000000"
       fill-opacity="0"
       d="m 280.42462,343.79822 -8.83795,5.03241 -21.49072,37.18619 0.0524,10.16949 z"
       fill-rule="evenodd"
       id="path792" />
    <path
       fill="#ff00ff"
       fill-opacity="0.5192"
       d="m 250.03189,301.42767 -21.43359,37.13415 42.87588,0.0474 z"
       fill-rule="evenodd"
       id="path794" />
    <path
       fill="#000000"
       fill-opacity="0"
       d="m 280.24417,343.81073 -8.77576,-5.13886 -42.94954,-0.024 -8.78224,5.129 z"
       fill-rule="evenodd"
       id="path796" />
    <path
       fill="#0000ff"
       fill-opacity="0.5192"
       d="m 250.0862,291.2429 -0.061,10.17178 21.45831,37.20166 8.83591,5.04108 z"
       fill-rule="evenodd"
       id="path798" />
    <path
       fill="#000000"
       fill-opacity="0"
       d="m 219.69173,343.699 8.83795,-5.03241 21.49074,-37.18616 -0.0524,-10.16952 z"
       fill-rule="evenodd"
       id="path800" />
    <path
       fill="#ff00ff"
       fill-opacity="0.5192"
       d="m 219.54984,333.18167 21.43361,-37.13416 -42.8759,-0.0474 z"
       fill-rule="evenodd"
       id="path802" />
    <path
       fill="#0000ff"
       fill-opacity="0.5192"
       d="m 189.33757,290.7986 8.77576,5.13882 42.94952,0.0241 8.78226,-5.12903 z"
       fill-rule="evenodd"
       id="path804" />
    <path
       fill="#000000"
       fill-opacity="0"
       d="m 219.49553,343.36646 0.061,-10.17181 -21.45831,-37.20166 -8.83591,-5.04105 z"
       fill-rule="evenodd"
       id="path806" />
    <path
       fill="#000000"
       fill-opacity="0"
       d="m 249.89,290.91034 -8.83795,5.03241 -21.49074,37.18616 0.0524,10.16949 z"
       fill-rule="evenodd"
       id="path808" />
    <path
       fill="#00ffff"
       fill-opacity="0.5192"
       d="m 219.26437,248.4762 -21.43361,37.13416 42.8759,0.0474 z"
       fill-rule="evenodd"
       id="path810" />
    <path
       fill="#000000"
       fill-opacity="0"
       d="m 249.47664,290.85925 -8.77576,-5.13882 -42.94952,-0.0241 -8.78226,5.12903 z"
       fill-rule="evenodd"
       id="path812" />
    <path
       fill="#00ff00"
       fill-opacity="0.5192"
       d="m 219.31868,238.29141 -0.061,10.1718 21.45832,37.20167 8.83591,5.04105 z"
       fill-rule="evenodd"
       id="path814" />
    <path
       fill="#000000"
       fill-opacity="0"
       d="m 188.9242,290.74753 8.83797,-5.03241 21.49073,-37.18616 -0.0524,-10.16951 z"
       fill-rule="evenodd"
       id="path816" />
    <path
       fill="#00ffff"
       fill-opacity="0.5192"
       d="m 189.05145,280.0748 21.43361,-37.13416 -42.8759,-0.0474 z"
       fill-rule="evenodd"
       id="path818" />
    <path
       fill="#00ff00"
       fill-opacity="0.5192"
       d="m 158.83919,237.69176 8.77576,5.13882 42.94954,0.024 8.78224,-5.12902 z"
       fill-rule="evenodd"
       id="path820" />
    <path
       fill="#000000"
       fill-opacity="0"
       d="m 188.99716,290.25958 0.061,-10.17178 -21.45831,-37.20168 -8.83591,-5.04104 z"
       fill-rule="evenodd"
       id="path822" />
    <path
       fill="#000000"
       fill-opacity="0"
       d="m 219.39163,237.80347 -8.83797,5.03241 -21.49072,37.18616 0.0524,10.16952 z"
       fill-rule="evenodd"
       id="path824" />
    <path
       fill="#ffff00"
       fill-opacity="0.5192"
       d="m 188.99889,195.43292 -21.43359,37.13414 42.87588,0.0474 z"
       fill-rule="evenodd"
       id="path826" />
    <path
       fill="#000000"
       fill-opacity="0"
       d="m 219.21117,237.81596 -8.77577,-5.13884 -42.94953,-0.024 -8.78224,5.12901 z"
       fill-rule="evenodd"
       id="path828" />
    <path
       fill="#ff0000"
       fill-opacity="0.5192"
       d="m 189.05319,185.24812 -0.061,10.1718 21.45831,37.20166 8.83591,5.04106 z"
       fill-rule="evenodd"
       id="path830" />
    <path
       fill="#000000"
       fill-opacity="0"
       d="m 158.65872,237.70424 8.83795,-5.03241 21.49074,-37.18616 -0.0524,-10.16951 z"
       fill-rule="evenodd"
       id="path832" />
    <path
       fill="#ffff00"
       fill-opacity="0.5192"
       d="m 158.51683,227.1869 21.43361,-37.13415 -42.8759,-0.0474 z"
       fill-rule="evenodd"
       id="path834" />
    <path
       fill="#ff0000"
       fill-opacity="0.5192"
       d="m 128.30457,184.80385 8.77576,5.13884 42.94952,0.024 8.78226,-5.12901 z"
       fill-rule="evenodd"
       id="path836" />
    <path
       fill="#000000"
       fill-opacity="0"
       d="m 158.46252,237.37169 0.061,-10.1718 -21.45831,-37.20166 -8.83591,-5.04106 z"
       fill-rule="evenodd"
       id="path838" />
    <path
       fill="#000000"
       fill-opacity="0"
       d="m 188.857,184.91557 -8.83795,5.03241 -21.49074,37.18617 0.0524,10.1695 z"
       fill-rule="evenodd"
       id="path840" />
    <path
       fill="#ff00ff"
       fill-opacity="0.5192"
       d="m 158.38168,142.59239 -21.43361,37.13415 42.8759,0.0474 z"
       fill-rule="evenodd"
       id="path842" />
    <path
       fill="#000000"
       fill-opacity="0"
       d="m 188.59395,184.97543 -8.77576,-5.13882 -42.94952,-0.024 -8.78226,5.129 z"
       fill-rule="evenodd"
       id="path844" />
    <path
       fill="#0000ff"
       fill-opacity="0.5192"
       d="m 158.43599,132.4076 -0.061,10.1718 21.45832,37.20166 8.83591,5.04106 z"
       fill-rule="evenodd"
       id="path846" />
    <path
       fill="#000000"
       fill-opacity="0"
       d="m 128.0415,184.86371 8.83797,-5.03241 21.49073,-37.18616 -0.0524,-10.16951 z"
       fill-rule="evenodd"
       id="path848" />
    <path
       fill="#ff00ff"
       fill-opacity="0.5192"
       d="m 127.89962,174.34637 21.4336,-37.13415 -42.87589,-0.0474 z"
       fill-rule="evenodd"
       id="path850" />
    <path
       fill="#0000ff"
       fill-opacity="0.5192"
       d="m 97.687355,131.96333 8.775755,5.13882 42.94953,0.024 8.78224,-5.129 z"
       fill-rule="evenodd"
       id="path852" />
    <path
       fill="#000000"
       fill-opacity="0"
       d="m 127.84532,184.53117 0.061,-10.17181 -21.45831,-37.20166 -8.835911,-5.04105 z"
       fill-rule="evenodd"
       id="path854" />
    <path
       fill="#000000"
       fill-opacity="0"
       d="m 158.23979,132.07504 -8.83795,5.03242 -21.49074,37.18616 0.0524,10.16951 z"
       fill-rule="evenodd"
       id="path856" />
    <path
       fill="#00ffff"
       fill-opacity="0.5192"
       d="m 127.84705,89.70449 -21.43361,37.13416 42.87591,0.0474 z"
       fill-rule="evenodd"
       id="path858" />
    <path
       fill="#000000"
       fill-opacity="0"
       d="m 158.05933,132.08754 -8.77577,-5.13883 -42.94952,-0.024 -8.782247,5.129 z"
       fill-rule="evenodd"
       id="path860" />
    <path
       fill="#00ff00"
       fill-opacity="0.5192"
       d="m 127.90135,79.5197 -0.061,10.171806 21.45831,37.201664 8.83591,5.04105 z"
       fill-rule="evenodd"
       id="path862" />
    <path
       fill="#000000"
       fill-opacity="0"
       d="m 97.50688,131.97581 8.83796,-5.0324 21.49073,-37.186167 -0.0524,-10.16951 z"
       fill-rule="evenodd"
       id="path864" />
    <path
       fill="#00ffff"
       fill-opacity="0.5192"
       d="M 97.36499,121.45848 118.7986,84.324325 75.922699,84.276901 Z"
       fill-rule="evenodd"
       id="path866" />
    <path
       fill="#00ff00"
       fill-opacity="0.5192"
       d="m 67.152725,79.07543 8.775757,5.13884 42.949528,0.02402 8.78225,-5.129006 z"
       fill-rule="evenodd"
       id="path868" />
    <path
       fill="#000000"
       fill-opacity="0"
       d="M 97.31069,131.64328 97.371649,121.47147 75.913336,84.269814 67.077429,79.228753 Z"
       fill-rule="evenodd"
       id="path870" />
    <path
       fill="#000000"
       fill-opacity="0"
       d="m 127.70516,79.18716 -8.83796,5.03241 -21.490729,37.18616 0.05242,10.1695 z"
       fill-rule="evenodd"
       id="path872" />
    <path
       fill="#ffff00"
       fill-opacity="0.5192"
       d="m 97.12698,36.92447 -21.433601,37.134155 42.875891,0.04742 z"
       fill-rule="evenodd"
       id="path874" />
    <path
       fill="#000000"
       fill-opacity="0"
       d="m 127.33926,79.30751 -8.77576,-5.138832 -42.949528,-0.02402 -8.782249,5.129005 z"
       fill-rule="evenodd"
       id="path876" />
    <path
       fill="#ff0000"
       fill-opacity="0.5192"
       d="m 97.18129,26.739676 -0.06097,10.171801 21.45832,37.20166 8.8359,5.041061 z"
       fill-rule="evenodd"
       id="path878" />
    <path
       fill="#000000"
       fill-opacity="0"
       d="m 66.78681,79.19579 8.837959,-5.03241 21.49073,-37.18616 -0.05242,-10.169506 z"
       fill-rule="evenodd"
       id="path880" />
    <path
       fill="#ffff00"
       fill-opacity="0.5192"
       d="M 66.91406,68.52306 88.347669,31.388905 45.471773,31.341481 Z"
       fill-rule="evenodd"
       id="path882" />
    <path
       fill="#ff0000"
       fill-opacity="0.5192"
       d="m 36.701797,26.140017 8.775764,5.138832 42.949524,0.02403 8.782249,-5.12901 z"
       fill-rule="evenodd"
       id="path884" />
    <path
       fill="#000000"
       fill-opacity="0"
       d="M 66.859764,78.707855 66.92073,68.536056 45.46241,31.334392 36.626507,26.293336 Z"
       fill-rule="evenodd"
       id="path886" />
    <path
       fill="#000000"
       fill-opacity="0"
       d="m 97.25424,26.251736 -8.837959,5.03241 -21.49073,37.18616 0.05242,10.16951 z"
       fill-rule="evenodd"
       id="path888" />
  </g>
</svg>
